# Blender v3.3.1 OBJ File: 'Platforms.blend'
# www.blender.org
mtllib RooftopObject1.mtl
o Cube_Cube.004
v -1.000000 -1.000000 1.000000
v -1.000000 1.000000 1.000000
v -1.000000 -1.000000 -2.132985
v -1.000000 1.000000 -2.132985
v 1.000000 -1.000000 1.000000
v 1.000000 1.000000 1.000000
v 1.000000 -1.000000 -2.132985
v 1.000000 1.000000 -2.132985
v 1.000000 0.793595 -1.013870
v 1.000000 -0.793595 -1.013870
v 1.000000 -0.793595 0.771105
v 1.000000 0.793595 0.771105
v -0.000000 1.211863 -0.523005
v -0.125385 1.211863 -0.510655
v -0.245952 1.211863 -0.474082
v -0.357067 1.211863 -0.414690
v -0.454460 1.211863 -0.334761
v -0.534389 1.211863 -0.237368
v -0.593781 1.211863 -0.126253
v -0.630355 1.211863 -0.005686
v -0.642704 1.211863 0.119699
v -0.630355 1.211863 0.245085
v -0.593781 1.211863 0.365652
v -0.534389 1.211863 0.476767
v -0.454460 1.211863 0.574160
v -0.357067 1.211863 0.654088
v -0.245952 1.211863 0.713481
v -0.125385 1.211863 0.750054
v -0.000000 1.211863 0.762403
v 0.125385 1.211863 0.750054
v 0.245952 1.211863 0.713481
v 0.357067 1.211863 0.654088
v 0.454460 1.211863 0.574160
v 0.534389 1.211863 0.476767
v 0.593781 1.211863 0.365652
v 0.630355 1.211863 0.245085
v 0.642704 1.211863 0.119699
v 0.630355 1.211863 -0.005686
v 0.593781 1.211863 -0.126253
v 0.534389 1.211863 -0.237368
v 0.454460 1.211863 -0.334761
v 0.357067 1.211863 -0.414690
v 0.245952 1.211863 -0.474082
v 0.125385 1.211863 -0.510655
v -0.125385 0.927906 -0.510655
v -0.000000 0.927906 -0.523005
v -0.245952 0.927906 -0.474082
v -0.357067 0.927906 -0.414690
v -0.454460 0.927906 -0.334761
v -0.534389 0.927906 -0.237368
v -0.593781 0.927906 -0.126253
v -0.630355 0.927906 -0.005686
v -0.642704 0.927906 0.119699
v -0.630355 0.927906 0.245085
v -0.593781 0.927906 0.365652
v -0.534389 0.927906 0.476767
v -0.454460 0.927906 0.574160
v -0.357067 0.927906 0.654088
v -0.245952 0.927906 0.713481
v -0.125385 0.927906 0.750054
v -0.000000 0.927906 0.762403
v 0.125385 0.927906 0.750054
v 0.245952 0.927906 0.713481
v 0.357067 0.927906 0.654088
v 0.454460 0.927906 0.574160
v 0.534389 0.927906 0.476767
v 0.593781 0.927906 0.365652
v 0.630355 0.927906 0.245085
v 0.642704 0.927906 0.119699
v 0.630355 0.927906 -0.005686
v 0.593781 0.927906 -0.126253
v 0.534389 0.927906 -0.237368
v 0.454460 0.927906 -0.334761
v 0.357067 0.927906 -0.414690
v 0.245952 0.927906 -0.474082
v 0.125385 0.927906 -0.510655
v -0.000000 1.211863 -1.909051
v -0.125385 1.211863 -1.896702
v -0.245952 1.211863 -1.860128
v -0.357067 1.211863 -1.800736
v -0.454460 1.211863 -1.720807
v -0.534389 1.211863 -1.623414
v -0.593781 1.211863 -1.512299
v -0.630355 1.211863 -1.391732
v -0.642704 1.211863 -1.266347
v -0.630355 1.211863 -1.140962
v -0.593781 1.211863 -1.020395
v -0.534389 1.211863 -0.909280
v -0.454460 1.211863 -0.811886
v -0.357067 1.211863 -0.731958
v -0.245952 1.211863 -0.672566
v -0.125385 1.211863 -0.635992
v -0.000000 1.211863 -0.623643
v 0.125385 1.211863 -0.635992
v 0.245952 1.211863 -0.672566
v 0.357067 1.211863 -0.731958
v 0.454460 1.211863 -0.811886
v 0.534389 1.211863 -0.909280
v 0.593781 1.211863 -1.020395
v 0.630355 1.211863 -1.140962
v 0.642704 1.211863 -1.266347
v 0.630355 1.211863 -1.391732
v 0.593781 1.211863 -1.512299
v 0.534389 1.211863 -1.623414
v 0.454460 1.211863 -1.720807
v 0.357067 1.211863 -1.800736
v 0.245952 1.211863 -1.860128
v 0.125385 1.211863 -1.896702
v -0.125385 0.927906 -1.896702
v -0.000000 0.927906 -1.909051
v -0.245952 0.927906 -1.860128
v -0.357067 0.927906 -1.800736
v -0.454460 0.927906 -1.720807
v -0.534389 0.927906 -1.623414
v -0.593781 0.927906 -1.512299
v -0.630355 0.927906 -1.391732
v -0.642704 0.927906 -1.266347
v -0.630355 0.927906 -1.140962
v -0.593781 0.927906 -1.020395
v -0.534389 0.927906 -0.909280
v -0.454460 0.927906 -0.811886
v -0.357067 0.927906 -0.731958
v -0.245952 0.927906 -0.672566
v -0.125385 0.927906 -0.635992
v -0.000000 0.927906 -0.623643
v 0.125385 0.927906 -0.635992
v 0.245952 0.927906 -0.672566
v 0.357067 0.927906 -0.731958
v 0.454460 0.927906 -0.811886
v 0.534389 0.927906 -0.909280
v 0.593781 0.927906 -1.020395
v 0.630355 0.927906 -1.140962
v 0.642704 0.927906 -1.266347
v 0.630355 0.927906 -1.391732
v 0.593781 0.927906 -1.512299
v 0.534389 0.927906 -1.623414
v 0.454460 0.927906 -1.720807
v 0.357067 0.927906 -1.800736
v 0.245952 0.927906 -1.860128
v 0.125385 0.927906 -1.896702
v -0.803834 0.803834 -2.132985
v -0.803834 -0.803834 -2.132985
v 0.803834 -0.803834 -2.132985
v 0.803834 0.803834 -2.132985
vt 0.252020 0.723190
vt 0.029002 0.723190
vt 0.029002 0.472382
vt 0.252020 0.472382
vt 0.815503 0.467783
vt 0.815503 0.693678
vt 0.589608 0.693678
vt 0.589608 0.467783
vt 0.843067 0.440219
vt 0.562045 0.440219
vt 0.562045 0.000000
vt 0.843067 0.000000
vt 0.843067 0.721241
vt 0.562045 0.721241
vt 0.000000 0.440219
vt 0.281022 0.440219
vt 0.562045 0.440219
vt 0.562045 0.721242
vt 0.281022 0.721241
vt 0.281022 0.440219
vt 0.281022 0.000000
vt 0.562045 0.000000
vt 0.000000 0.000000
vt 0.281022 0.000000
vt 0.281022 0.440219
vt 0.281022 0.880438
vt 0.000000 0.880438
vt 0.291251 0.768543
vt 0.284476 0.784899
vt 0.281022 0.802262
vt 0.281022 0.819965
vt 0.284476 0.837328
vt 0.291251 0.853684
vt 0.301086 0.868404
vt 0.313604 0.880922
vt 0.328324 0.890757
vt 0.344680 0.897532
vt 0.362043 0.900986
vt 0.379746 0.900986
vt 0.397109 0.897532
vt 0.413465 0.890757
vt 0.428185 0.880922
vt 0.440703 0.868404
vt 0.450538 0.853684
vt 0.457313 0.837328
vt 0.460767 0.819965
vt 0.460767 0.802262
vt 0.457313 0.784899
vt 0.450538 0.768543
vt 0.440703 0.753823
vt 0.428185 0.741305
vt 0.413465 0.731470
vt 0.397109 0.724695
vt 0.379746 0.721241
vt 0.362043 0.721241
vt 0.344680 0.724695
vt 0.328324 0.731470
vt 0.313604 0.741305
vt 0.301086 0.753823
vt 0.508069 0.731470
vt 0.493349 0.741305
vt 0.480831 0.753824
vt 0.470995 0.768543
vt 0.464220 0.784899
vt 0.460767 0.802262
vt 0.460767 0.819965
vt 0.464220 0.837328
vt 0.470995 0.853684
vt 0.480831 0.868404
vt 0.493349 0.880922
vt 0.508069 0.890757
vt 0.524424 0.897532
vt 0.541787 0.900986
vt 0.559491 0.900986
vt 0.576854 0.897532
vt 0.593209 0.890757
vt 0.607929 0.880922
vt 0.620447 0.868404
vt 0.630283 0.853684
vt 0.637057 0.837328
vt 0.640511 0.819965
vt 0.640511 0.802262
vt 0.637057 0.784899
vt 0.630283 0.768543
vt 0.620447 0.753824
vt 0.607929 0.741305
vt 0.593209 0.731470
vt 0.576854 0.724695
vt 0.559491 0.721241
vt 0.541787 0.721241
vt 0.524424 0.724695
vt 0.882966 0.046239
vt 0.922865 0.046239
vt 0.922865 0.029298
vt 0.882966 0.029298
vt 0.882966 0.255427
vt 0.922865 0.255427
vt 0.922865 0.241742
vt 0.882966 0.241742
vt 0.843067 0.209188
vt 0.882966 0.209188
vt 0.882966 0.191570
vt 0.843067 0.191570
vt 0.922865 0.013685
vt 0.882966 0.013685
vt 0.922865 0.226129
vt 0.882966 0.226129
vt 0.922865 0.000000
vt 0.882966 0.000000
vt 0.922865 0.209188
vt 0.882966 0.209188
vt 0.843067 0.127713
vt 0.882966 0.127713
vt 0.882966 0.114029
vt 0.843067 0.114029
vt 0.922865 0.191570
vt 0.882966 0.191570
vt 0.882966 0.098416
vt 0.843067 0.098416
vt 0.922865 0.173952
vt 0.882966 0.173952
vt 0.882966 0.081475
vt 0.843067 0.081475
vt 0.922865 0.157011
vt 0.882966 0.157011
vt 0.882966 0.063857
vt 0.843067 0.063857
vt 0.922865 0.141398
vt 0.882966 0.141398
vt 0.882966 0.046239
vt 0.843067 0.046239
vt 0.922865 0.127714
vt 0.882966 0.127714
vt 0.882966 0.029298
vt 0.843067 0.029298
vt 0.922865 0.114029
vt 0.882966 0.114029
vt 0.882966 0.013685
vt 0.843067 0.013685
vt 0.922865 0.098416
vt 0.882966 0.098416
vt 0.882966 0.173952
vt 0.843067 0.173952
vt 0.882966 0.000000
vt 0.843067 0.000000
vt 0.922865 0.081475
vt 0.882966 0.081475
vt 0.882966 0.157011
vt 0.843067 0.157011
vt 0.843067 0.255427
vt 0.882966 0.255427
vt 0.882966 0.241742
vt 0.843067 0.241742
vt 0.922865 0.063857
vt 0.882966 0.063857
vt 0.882966 0.141398
vt 0.843067 0.141398
vt 0.882966 0.226129
vt 0.843067 0.226129
vt 0.882966 0.127713
vt 0.843067 0.127713
vt 0.640511 0.819965
vt 0.643965 0.837328
vt 0.650740 0.853684
vt 0.660575 0.868404
vt 0.673093 0.880922
vt 0.687813 0.890757
vt 0.704169 0.897532
vt 0.721532 0.900986
vt 0.739235 0.900986
vt 0.756598 0.897532
vt 0.772954 0.890757
vt 0.787674 0.880922
vt 0.800192 0.868404
vt 0.810027 0.853684
vt 0.816802 0.837328
vt 0.820256 0.819965
vt 0.820256 0.802262
vt 0.816802 0.784899
vt 0.810027 0.768543
vt 0.800192 0.753823
vt 0.787674 0.741305
vt 0.772954 0.731470
vt 0.756598 0.724695
vt 0.739235 0.721241
vt 0.721532 0.721241
vt 0.704169 0.724695
vt 0.687813 0.731470
vt 0.673093 0.741305
vt 0.660575 0.753823
vt 0.650740 0.768543
vt 0.643965 0.784899
vt 0.640511 0.802262
vt 0.823709 0.784899
vt 0.820256 0.802262
vt 0.820256 0.819965
vt 0.823709 0.837328
vt 0.830484 0.853684
vt 0.840320 0.868404
vt 0.852838 0.880922
vt 0.867557 0.890757
vt 0.883913 0.897532
vt 0.901276 0.900986
vt 0.918980 0.900986
vt 0.936343 0.897532
vt 0.952698 0.890757
vt 0.967418 0.880922
vt 0.979936 0.868404
vt 0.989772 0.853684
vt 0.996546 0.837328
vt 1.000000 0.819965
vt 1.000000 0.802262
vt 0.996546 0.784899
vt 0.989772 0.768543
vt 0.979936 0.753823
vt 0.967418 0.741305
vt 0.952698 0.731470
vt 0.936343 0.724695
vt 0.918979 0.721241
vt 0.901276 0.721241
vt 0.883913 0.724695
vt 0.867557 0.731470
vt 0.852838 0.741305
vt 0.840320 0.753823
vt 0.830484 0.768543
vt 0.882966 0.301666
vt 0.922865 0.301666
vt 0.922865 0.284725
vt 0.882966 0.284725
vt 0.843067 0.638567
vt 0.882966 0.638567
vt 0.882966 0.624883
vt 0.843067 0.624883
vt 0.843067 0.464615
vt 0.882966 0.464615
vt 0.882966 0.446997
vt 0.843067 0.446997
vt 0.922865 0.269112
vt 0.882966 0.269112
vt 0.882966 0.609270
vt 0.843067 0.609270
vt 0.922865 0.255427
vt 0.882966 0.255427
vt 0.882966 0.592329
vt 0.843067 0.592329
vt 0.843067 0.383140
vt 0.882966 0.383140
vt 0.882966 0.369456
vt 0.843067 0.369456
vt 0.882966 0.574711
vt 0.843067 0.574711
vt 0.882966 0.353843
vt 0.843067 0.353843
vt 0.882966 0.557093
vt 0.843067 0.557093
vt 0.882966 0.336902
vt 0.843067 0.336902
vt 0.882966 0.540152
vt 0.843067 0.540152
vt 0.882966 0.319284
vt 0.843067 0.319284
vt 0.882966 0.524539
vt 0.843067 0.524539
vt 0.882966 0.301666
vt 0.843067 0.301666
vt 0.882966 0.510854
vt 0.843067 0.510854
vt 0.882966 0.284725
vt 0.843067 0.284725
vt 0.882966 0.383140
vt 0.922865 0.383140
vt 0.922865 0.369456
vt 0.882966 0.369456
vt 0.882966 0.269112
vt 0.843067 0.269112
vt 0.922865 0.353843
vt 0.882966 0.353843
vt 0.882966 0.429379
vt 0.843067 0.429379
vt 0.882966 0.255427
vt 0.843067 0.255427
vt 0.922865 0.336902
vt 0.882966 0.336902
vt 0.882966 0.412438
vt 0.843067 0.412438
vt 0.843067 0.510854
vt 0.882966 0.510854
vt 0.882966 0.497169
vt 0.843067 0.497169
vt 0.922865 0.319284
vt 0.882966 0.319284
vt 0.882966 0.396825
vt 0.843067 0.396825
vt 0.882966 0.481556
vt 0.843067 0.481556
vt 0.882966 0.383140
vt 0.843067 0.383140
vt 0.843067 0.440219
vt 0.562045 0.440219
vn 1.0000 0.0000 0.0000
vn 0.0000 0.0000 -1.0000
vn -1.0000 0.0000 0.0000
vn 0.0000 0.0000 1.0000
vn 0.0000 -1.0000 0.0000
vn 0.0000 1.0000 0.0000
vn 0.2903 0.0000 0.9569
vn -0.7730 0.0000 -0.6344
vn 0.0980 0.0000 -0.9952
vn 0.4714 0.0000 0.8819
vn -0.8819 0.0000 -0.4714
vn 0.6344 0.0000 0.7730
vn -0.9569 0.0000 -0.2903
vn 0.7730 0.0000 0.6344
vn -0.9952 0.0000 -0.0980
vn 0.8819 0.0000 0.4714
vn -0.9952 0.0000 0.0980
vn 0.9569 0.0000 0.2903
vn -0.9569 0.0000 0.2903
vn 0.9952 0.0000 0.0980
vn -0.8819 0.0000 0.4714
vn 0.9952 0.0000 -0.0980
vn -0.7730 0.0000 0.6344
vn 0.9569 0.0000 -0.2903
vn -0.6344 0.0000 0.7730
vn 0.8819 0.0000 -0.4714
vn -0.4714 0.0000 0.8819
vn -0.0980 0.0000 -0.9952
vn 0.7730 0.0000 -0.6344
vn -0.2903 0.0000 0.9569
vn -0.2903 0.0000 -0.9569
vn 0.6344 0.0000 -0.7730
vn -0.0980 0.0000 0.9952
vn -0.4714 0.0000 -0.8819
vn 0.4714 0.0000 -0.8819
vn 0.0980 0.0000 0.9952
vn -0.6344 0.0000 -0.7730
vn 0.2903 0.0000 -0.9569
usemtl Stripes
s off
f 10/1/1 9/2/1 12/3/1 11/4/1
f 142/5/2 141/6/2 144/7/2 143/8/2
usemtl pipes_1
f 1/9/3 2/10/3 4/11/3 3/12/3
f 4/13/2 8/14/2 144/7/2 141/6/2
f 6/15/1 5/16/1 11/4/1 12/3/1
f 5/17/4 6/18/4 2/19/4 1/20/4
f 3/21/5 7/22/5 5/17/5 1/20/5
f 8/23/6 4/24/6 2/25/6 6/15/6
f 5/16/1 7/26/1 10/1/1 11/4/1
f 8/27/1 6/15/1 12/3/1 9/2/1
f 7/26/1 8/27/1 9/2/1 10/1/1
f 14/28/6 15/29/6 16/30/6 17/31/6 18/32/6 19/33/6 20/34/6 21/35/6 22/36/6 23/37/6 24/38/6 25/39/6 26/40/6 27/41/6 28/42/6 29/43/6 30/44/6 31/45/6 32/46/6 33/47/6 34/48/6 35/49/6 36/50/6 37/51/6 38/52/6 39/53/6 40/54/6 41/55/6 42/56/6 43/57/6 44/58/6 13/59/6
f 45/60/5 46/61/5 76/62/5 75/63/5 74/64/5 73/65/5 72/66/5 71/67/5 70/68/5 69/69/5 68/70/5 67/71/5 66/72/5 65/73/5 64/74/5 63/75/5 62/76/5 61/77/5 60/78/5 59/79/5 58/80/5 57/81/5 56/82/5 55/83/5 54/84/5 53/85/5 52/86/5 51/87/5 50/88/5 49/89/5 48/90/5 47/91/5
f 30/92/7 62/93/7 63/94/7 31/95/7
f 17/96/8 49/97/8 50/98/8 18/99/8
f 44/100/9 76/101/9 46/102/9 13/103/9
f 31/95/10 63/94/10 64/104/10 32/105/10
f 18/99/11 50/98/11 51/106/11 19/107/11
f 32/105/12 64/104/12 65/108/12 33/109/12
f 19/107/13 51/106/13 52/110/13 20/111/13
f 33/112/14 65/113/14 66/114/14 34/115/14
f 20/111/15 52/110/15 53/116/15 21/117/15
f 34/115/16 66/114/16 67/118/16 35/119/16
f 21/117/17 53/116/17 54/120/17 22/121/17
f 35/119/18 67/118/18 68/122/18 36/123/18
f 22/121/19 54/120/19 55/124/19 23/125/19
f 36/123/20 68/122/20 69/126/20 37/127/20
f 23/125/21 55/124/21 56/128/21 24/129/21
f 37/127/22 69/126/22 70/130/22 38/131/22
f 24/129/23 56/128/23 57/132/23 25/133/23
f 38/131/24 70/130/24 71/134/24 39/135/24
f 25/133/25 57/132/25 58/136/25 26/137/25
f 39/135/26 71/134/26 72/138/26 40/139/26
f 26/137/27 58/136/27 59/140/27 27/141/27
f 13/103/28 46/102/28 45/142/28 14/143/28
f 40/139/29 72/138/29 73/144/29 41/145/29
f 27/141/30 59/140/30 60/146/30 28/147/30
f 14/143/31 45/142/31 47/148/31 15/149/31
f 41/150/32 73/151/32 74/152/32 42/153/32
f 28/147/33 60/146/33 61/154/33 29/155/33
f 15/149/34 47/148/34 48/156/34 16/157/34
f 42/153/35 74/152/35 75/158/35 43/159/35
f 29/155/36 61/154/36 62/93/36 30/92/36
f 16/157/37 48/156/37 49/160/37 17/161/37
f 43/159/38 75/158/38 76/101/38 44/100/38
f 78/162/6 79/163/6 80/164/6 81/165/6 82/166/6 83/167/6 84/168/6 85/169/6 86/170/6 87/171/6 88/172/6 89/173/6 90/174/6 91/175/6 92/176/6 93/177/6 94/178/6 95/179/6 96/180/6 97/181/6 98/182/6 99/183/6 100/184/6 101/185/6 102/186/6 103/187/6 104/188/6 105/189/6 106/190/6 107/191/6 108/192/6 77/193/6
f 109/194/5 110/195/5 140/196/5 139/197/5 138/198/5 137/199/5 136/200/5 135/201/5 134/202/5 133/203/5 132/204/5 131/205/5 130/206/5 129/207/5 128/208/5 127/209/5 126/210/5 125/211/5 124/212/5 123/213/5 122/214/5 121/215/5 120/216/5 119/217/5 118/218/5 117/219/5 116/220/5 115/221/5 114/222/5 113/223/5 112/224/5 111/225/5
f 94/226/7 126/227/7 127/228/7 95/229/7
f 81/230/8 113/231/8 114/232/8 82/233/8
f 108/234/9 140/235/9 110/236/9 77/237/9
f 95/229/10 127/228/10 128/238/10 96/239/10
f 82/233/11 114/232/11 115/240/11 83/241/11
f 96/239/12 128/238/12 129/242/12 97/243/12
f 83/241/13 115/240/13 116/244/13 84/245/13
f 97/246/14 129/247/14 130/248/14 98/249/14
f 84/245/15 116/244/15 117/250/15 85/251/15
f 98/249/16 130/248/16 131/252/16 99/253/16
f 85/251/17 117/250/17 118/254/17 86/255/17
f 99/253/18 131/252/18 132/256/18 100/257/18
f 86/255/19 118/254/19 119/258/19 87/259/19
f 100/257/20 132/256/20 133/260/20 101/261/20
f 87/259/21 119/258/21 120/262/21 88/263/21
f 101/261/22 133/260/22 134/264/22 102/265/22
f 88/263/23 120/262/23 121/266/23 89/267/23
f 102/265/24 134/264/24 135/268/24 103/269/24
f 89/270/25 121/271/25 122/272/25 90/273/25
f 103/269/26 135/268/26 136/274/26 104/275/26
f 90/273/27 122/272/27 123/276/27 91/277/27
f 77/237/28 110/236/28 109/278/28 78/279/28
f 104/275/29 136/274/29 137/280/29 105/281/29
f 91/277/30 123/276/30 124/282/30 92/283/30
f 78/279/31 109/278/31 111/284/31 79/285/31
f 105/286/32 137/287/32 138/288/32 106/289/32
f 92/283/33 124/282/33 125/290/33 93/291/33
f 79/285/34 111/284/34 112/292/34 80/293/34
f 106/289/35 138/288/35 139/294/35 107/295/35
f 93/291/36 125/290/36 126/227/36 94/226/36
f 80/293/37 112/292/37 113/296/37 81/297/37
f 107/295/38 139/294/38 140/235/38 108/234/38
f 3/298/2 4/13/2 141/6/2 142/5/2
f 8/14/2 7/299/2 143/8/2 144/7/2
f 7/299/2 3/298/2 142/5/2 143/8/2
