# Blender v3.3.1 OBJ File: 'Platforms.blend'
# www.blender.org
mtllib RooftopObject2.mtl
o rooftop_platform_2_Cube.005
v -2.000000 -1.000000 3.000000
v -2.000000 3.000000 3.000000
v -2.000000 -1.000000 -3.000000
v -2.000000 3.000000 -3.000000
v 2.000000 -1.000000 3.000000
v 2.000000 3.000000 3.000000
v 2.000000 -1.000000 -3.000000
v 2.000000 3.000000 -3.000000
v 2.000000 1.416425 -2.359364
v 2.000000 -0.474904 -2.359364
v 2.000000 -0.474904 -1.175200
v 2.000000 1.416425 -1.175200
v 2.065491 1.416425 -2.359364
v 2.065491 -0.474904 -2.359364
v 2.065491 -0.474904 -1.175200
v 2.065491 1.416425 -1.175200
v -1.787324 3.000000 2.680985
v -1.787324 3.000000 -2.680985
v 1.787324 3.000000 -2.680985
v 1.787324 3.000000 2.680985
v -1.787324 2.709576 2.680985
v -1.787324 2.709576 -2.680985
v 1.787324 2.709576 -2.680985
v 1.787324 2.709576 2.680985
v 1.993079 -0.988418 -1.116829
v 1.993079 -0.825518 -1.116829
v 1.993079 -0.988418 -2.427185
v 1.993079 -0.825518 -2.427185
v 2.934144 -0.988418 -1.116829
v 2.934144 -0.825518 -1.116829
v 2.934144 -0.988418 -2.427185
v 2.934144 -0.825518 -2.427185
v 2.698878 -0.988418 -2.427185
v 2.463612 -0.988418 -2.427185
v 2.228345 -0.988418 -2.427185
v 2.228346 -0.825518 -2.427185
v 2.463612 -0.825518 -2.427185
v 2.698878 -0.825518 -2.427185
v 2.228346 -0.988418 -1.116829
v 2.463612 -0.988418 -1.116829
v 2.698878 -0.988418 -1.116829
v 2.698878 -0.825518 -1.116829
v 2.463612 -0.825518 -1.116829
v 2.228345 -0.825518 -1.116829
v 1.993079 -0.650285 -1.116829
v 1.993079 -0.650285 -2.427185
v 2.228345 -0.650285 -1.116829
v 2.228346 -0.650285 -2.427185
v 2.463612 -0.650285 -2.427185
v 2.698878 -0.650285 -2.427185
v 2.698878 -0.650285 -1.116829
v 2.463612 -0.650285 -1.116829
v 1.993079 -0.463356 -1.116829
v 1.993079 -0.463356 -2.427185
v 2.228345 -0.463356 -1.116829
v 2.228346 -0.463356 -2.427185
v 2.463612 -0.463356 -2.427185
v 2.463612 -0.463356 -1.116829
vt 0.857143 0.428571
vt 0.571429 0.428571
vt 0.571429 0.000000
vt 0.857143 0.000000
vt 0.826760 0.428571
vt 0.826760 0.714286
vt 0.541046 0.714286
vt 0.541046 0.428571
vt 0.285714 0.857143
vt 0.000000 0.857143
vt 0.113112 0.811383
vt 0.248207 0.811383
vt 0.826760 0.714286
vt 0.826760 1.000000
vt 0.541046 1.000000
vt 0.541046 0.714286
vt 0.000000 0.000000
vt 0.285714 0.000000
vt 0.285714 0.428571
vt 0.000000 0.428571
vt 0.556237 0.405785
vt 0.556237 0.022787
vt 0.000000 0.428571
vt 0.248207 0.726800
vt 0.113112 0.726800
vt 0.440410 0.896152
vt 0.440410 0.811569
vt 0.445088 0.811569
vt 0.445088 0.896152
vt 0.857143 0.382998
vt 0.857143 0.000000
vt 0.877887 0.000000
vt 0.877887 0.382998
vt 0.285714 0.428571
vt 0.300906 0.405785
vt 0.285714 0.000000
vt 0.300906 0.022787
vt 0.285714 0.428571
vt 0.541046 0.428571
vt 0.541046 0.811569
vt 0.285714 0.811569
vt 0.826760 0.912595
vt 0.826760 0.657263
vt 0.847505 0.657263
vt 0.847505 0.912595
vt 0.847505 0.912595
vt 0.847505 0.657263
vt 0.868250 0.657263
vt 0.868250 0.912595
vt 0.877887 0.382998
vt 0.877887 0.000000
vt 0.898632 0.000000
vt 0.898632 0.382998
vt 0.285714 0.811569
vt 0.297350 0.811569
vt 0.297350 0.905166
vt 0.285714 0.905166
vt 0.360723 0.861983
vt 0.372359 0.861983
vt 0.372359 0.878788
vt 0.360723 0.878788
vt 0.424096 0.811569
vt 0.435732 0.811569
vt 0.435732 0.905166
vt 0.424096 0.905166
vt 0.323219 0.861983
vt 0.334854 0.861983
vt 0.334854 0.878788
vt 0.323219 0.878788
vt 0.877175 0.563666
vt 0.893979 0.563666
vt 0.893979 0.657263
vt 0.877175 0.657263
vt 0.372359 0.845179
vt 0.384875 0.845179
vt 0.384875 0.861983
vt 0.868250 0.750860
vt 0.885054 0.750860
vt 0.885054 0.844457
vt 0.868250 0.844457
vt 0.334854 0.845179
vt 0.347371 0.845179
vt 0.347371 0.861983
vt 0.372359 0.828374
vt 0.384875 0.828374
vt 0.826760 0.563666
vt 0.843565 0.563666
vt 0.843565 0.657263
vt 0.826760 0.657263
vt 0.860370 0.563666
vt 0.860370 0.657263
vt 0.323219 0.811569
vt 0.334854 0.811569
vt 0.334854 0.828374
vt 0.323219 0.828374
vt 0.323219 0.845179
vt 0.360723 0.811569
vt 0.372359 0.811569
vt 0.360723 0.828374
vt 0.360723 0.845179
vt 0.309867 0.905166
vt 0.309867 0.811569
vt 0.323219 0.811569
vt 0.323219 0.905166
vt 0.885054 0.750860
vt 0.901859 0.750860
vt 0.901859 0.844457
vt 0.885054 0.844457
vt 0.384875 0.811569
vt 0.398228 0.811569
vt 0.398228 0.828374
vt 0.411580 0.905166
vt 0.411580 0.811569
vt 0.424096 0.811569
vt 0.424096 0.905166
vt 0.347371 0.828374
vt 0.347371 0.878788
vt 0.885054 0.657263
vt 0.901859 0.657263
vt 0.901859 0.750860
vt 0.885054 0.750860
vt 0.868250 0.657263
vt 0.868250 0.750860
vt 0.398228 0.845179
vt 0.360723 0.861983
vt 0.360723 0.878788
vt 0.398228 0.905166
vt 0.398228 0.811569
vt 0.411580 0.811569
vt 0.411580 0.905166
vt 0.360723 0.845179
vt 0.898632 0.270190
vt 0.898632 0.135095
vt 0.903310 0.135095
vt 0.903310 0.270190
vt 0.911344 0.428571
vt 0.911344 0.563666
vt 0.826760 0.563666
vt 0.826760 0.428571
vt 0.440410 0.811569
vt 0.440410 0.896152
vt 0.435732 0.896152
vt 0.435732 0.811569
vt 0.903310 0.000000
vt 0.903310 0.135095
vt 0.898632 0.135095
vt 0.898632 0.000000
vn -1.0000 0.0000 0.0000
vn 0.0000 0.0000 -1.0000
vn 1.0000 0.0000 0.0000
vn 0.0000 0.0000 1.0000
vn 0.0000 -1.0000 0.0000
vn 0.0000 1.0000 0.0000
usemtl pipes_1
s off
f 1/1/1 2/2/1 4/3/1 3/4/1
f 3/5/2 4/6/2 8/7/2 7/8/2
f 7/9/3 8/10/3 9/11/3 10/12/3
f 5/13/4 6/14/4 2/15/4 1/16/4
f 3/17/5 7/18/5 5/19/5 1/20/5
f 4/3/6 2/2/6 17/21/6 18/22/6
f 6/23/3 5/19/3 11/24/3 12/25/3
f 5/19/3 7/9/3 10/12/3 11/24/3
f 8/10/3 6/23/3 12/25/3 9/11/3
f 11/26/5 10/27/5 14/28/5 15/29/5
f 18/30/3 17/31/3 21/32/3 22/33/3
f 2/2/6 6/34/6 20/35/6 17/21/6
f 8/36/6 4/3/6 18/22/6 19/37/6
f 6/34/6 8/36/6 19/37/6 20/35/6
f 23/38/6 22/39/6 21/40/6 24/41/6
f 17/42/2 20/43/2 24/44/2 21/45/2
f 19/46/4 18/47/4 22/48/4 23/49/4
f 20/50/1 19/51/1 23/52/1 24/53/1
f 25/54/1 26/55/1 28/56/1 27/57/1
f 33/58/2 38/59/2 32/60/2 31/61/2
f 31/62/3 32/63/3 30/64/3 29/65/3
f 39/66/4 44/67/4 26/68/4 25/69/4
f 33/70/5 31/71/5 29/72/5 41/73/5
f 38/59/2 37/74/2 49/75/2 50/76/2
f 32/77/6 38/78/6 42/79/6 30/80/6
f 44/67/4 43/81/4 52/82/4 47/83/4
f 37/74/2 36/84/2 48/85/2 49/75/2
f 27/86/5 35/87/5 39/88/5 25/89/5
f 35/87/5 34/90/5 40/91/5 39/88/5
f 34/90/5 33/70/5 41/73/5 40/91/5
f 29/92/4 30/93/4 42/94/4 41/95/4
f 41/95/4 42/94/4 43/81/4 40/96/4
f 40/96/4 43/81/4 44/67/4 39/66/4
f 27/97/2 28/98/2 36/84/2 35/99/2
f 35/99/2 36/84/2 37/74/2 34/100/2
f 34/100/2 37/74/2 38/59/2 33/58/2
f 46/101/1 45/102/1 53/103/1 54/104/1
f 50/105/6 49/106/6 52/107/6 51/108/6
f 48/85/2 46/109/2 54/110/2 56/111/2
f 36/84/2 28/98/2 46/109/2 48/85/2
f 42/112/3 38/113/3 50/114/3 51/115/3
f 28/56/1 26/55/1 45/102/1 46/101/1
f 43/81/4 42/94/4 51/116/4 52/82/4
f 26/68/4 44/67/4 47/83/4 45/117/4
f 56/118/6 54/119/6 53/120/6 55/121/6
f 57/122/6 56/118/6 55/121/6 58/123/6
f 49/75/2 48/85/2 56/111/2 57/124/2
f 45/117/4 47/83/4 55/125/4 53/126/4
f 52/127/3 49/128/3 57/129/3 58/130/3
f 47/83/4 52/82/4 58/131/4 55/125/4
usemtl coal
f 12/132/4 11/133/4 15/134/4 16/135/4
f 14/136/3 13/137/3 16/138/3 15/139/3
f 9/140/6 12/141/6 16/142/6 13/143/6
f 10/144/2 9/145/2 13/146/2 14/147/2
