# Blender v3.3.1 OBJ File: 'Platforms.blend'
# www.blender.org
mtllib Platforms4.mtl
o platform_4_Plane.003
v -1.890008 -0.772324 2.259495
v 1.958829 -0.754523 2.333723
v -1.941724 -0.335566 -2.140927
v 2.030294 -0.260094 -1.987432
v -2.069532 1.366856 -2.018476
v -1.965460 1.311490 2.106971
v 1.890646 1.302207 1.999584
v 2.077363 1.365602 -2.052939
v -3.173306 -1.654305 0.569344
v 0.104918 -0.758642 1.696400
v 2.232925 -2.328385 0.415241
v 0.305919 -1.111745 -2.677927
v -3.173730 1.053247 0.555230
v 0.353993 1.097257 3.357445
v 2.751564 0.890009 0.004363
v 0.122738 1.309179 -2.271991
v -2.090367 0.595806 -2.007123
v 2.098279 0.584870 -2.105026
v 1.920716 0.057489 2.524103
v -2.027740 0.506089 2.134380
v -3.187194 -0.678479 0.547949
v 2.740565 -0.722182 0.560604
v 0.350469 0.173893 3.356012
v 0.305919 -0.198700 -2.677927
v -0.107348 1.352457 0.028190
v -0.097580 -2.527924 -0.160706
v -1.858563 -0.660862 1.483786
v 1.139139 -0.713646 2.823046
v 1.982920 -0.526308 -1.009830
v -0.863905 -0.560282 -2.301590
v -2.207445 1.177498 1.375635
v 1.131684 1.323785 2.643678
v 2.047632 1.352457 -0.979531
v -0.988117 1.501049 -2.031011
v -2.001334 1.212120 -2.015337
v 2.096104 0.079754 -2.148343
v 1.954815 0.745126 2.054719
v -1.913381 0.049147 2.220331
v -2.128764 -0.891821 -0.983166
v -0.747503 -0.713482 2.088351
v 1.735449 -1.432965 1.144904
v 0.996312 -0.147746 -2.010133
v -2.358875 1.258886 -0.884654
v -0.745669 1.285270 2.938610
v 2.288096 0.943939 1.324115
v 1.168065 1.161991 -2.372437
v -2.030643 0.193948 -2.034758
v 2.044091 1.186002 -2.026423
v 1.939961 -0.152371 2.410568
v -1.938291 0.957678 2.418462
v -3.185031 -0.268778 0.523427
v -3.150284 -1.199762 0.681573
v -2.628233 0.035505 -0.786894
v -2.088364 0.147865 1.557995
v 2.626787 0.100095 0.070759
v 2.240277 -1.832022 0.368543
v 1.844829 -0.337298 1.239790
v 2.124480 0.225294 -1.032574
v 0.356428 0.647866 3.358436
v 0.266805 -0.121755 3.022965
v -0.816526 0.403754 2.612313
v 0.932192 0.434024 2.147992
v 0.305919 0.257822 -2.677927
v 0.305919 -0.655222 -2.677927
v 1.023733 0.360334 -2.173456
v -0.920291 0.535860 -2.176638
v -0.025008 1.352457 -1.275908
v 0.062730 1.352457 1.338076
v -1.218268 1.352457 0.487059
v 1.051619 1.352457 0.161236
v 1.143930 -1.489918 0.355656
v -1.679111 -1.597311 0.468264
v -0.069769 -1.778872 0.600869
v 0.017645 -0.848624 -1.210121
v -1.226871 -1.325234 -1.226663
v -1.086159 -1.200806 0.493654
v 0.904271 -0.821254 1.023570
v 1.191367 1.352457 1.753626
v -0.939612 1.352457 1.513139
v -0.984267 1.352457 -0.984456
v -0.871842 -0.077987 -2.284002
v 1.083249 0.067844 -2.184481
v 1.040451 0.721529 -2.248030
v 1.009817 0.114694 2.215189
v -0.753702 -0.212605 2.085377
v -0.929321 1.069993 2.219429
v 1.970779 -0.371610 -0.961780
v 1.861440 -0.591650 1.338934
v 2.190075 0.380015 1.359703
v -1.985330 -0.044274 1.333078
v -2.326628 -0.548792 -0.863136
v -2.549120 0.463522 -0.866007
v -2.498885 0.378445 1.353721
v 2.082735 0.797903 -1.012549
v 1.064681 0.897392 2.453065
v -0.979572 1.175673 -2.049148
v 1.143610 1.352457 -0.965909
v 1.078032 -0.991064 -1.128088
vt 0.564689 0.489464
vt 0.468974 0.502256
vt 0.471730 0.419077
vt 0.548909 0.422337
vt 0.156833 0.109373
vt 0.090698 0.079988
vt 0.122213 0.000000
vt 0.198838 0.005131
vt 0.126045 0.800410
vt 0.119234 0.881832
vt 0.111587 0.887759
vt 0.112573 0.802471
vt 0.206099 0.698822
vt 0.218444 0.630695
vt 0.259493 0.640528
vt 0.239188 0.715942
vt 0.764589 0.569031
vt 0.755575 0.650156
vt 0.741918 0.655387
vt 0.722461 0.581547
vt 0.055843 0.791968
vt 0.055843 0.867104
vt 0.019352 0.864671
vt 0.000000 0.820901
vt 0.843898 0.216144
vt 0.889965 0.343387
vt 0.784731 0.335194
vt 0.782143 0.203055
vt 0.926036 0.217683
vt 0.963414 0.361293
vt 0.922402 0.348435
vt 0.876930 0.227629
vt 0.361105 0.809671
vt 0.425040 0.813059
vt 0.423312 0.850323
vt 0.381394 0.824409
vt 0.200015 0.569090
vt 0.196041 0.462279
vt 0.259493 0.467290
vt 0.245474 0.573017
vt 0.118178 0.564270
vt 0.038150 0.462279
vt 0.133839 0.472883
vt 0.137609 0.563487
vt 0.854164 0.540133
vt 0.841005 0.629644
vt 0.801809 0.639051
vt 0.807722 0.554960
vt 0.749397 0.159515
vt 0.716512 0.023797
vt 0.751566 0.023067
vt 0.773760 0.113956
vt 0.645458 0.156848
vt 0.653020 0.046698
vt 0.679597 0.025284
vt 0.701443 0.135440
vt 0.808395 0.805095
vt 0.819549 0.730623
vt 0.837317 0.736339
vt 0.825728 0.824507
vt 0.811760 0.685596
vt 0.867492 0.727043
vt 0.782857 0.730623
vt 0.778662 0.701096
vt 0.859395 0.663692
vt 0.936749 0.704483
vt 0.902121 0.715763
vt 0.837979 0.672024
vt 0.906974 0.066208
vt 0.875458 0.116438
vt 0.842907 0.117125
vt 0.857217 0.070837
vt 0.314091 0.174815
vt 0.252606 0.123235
vt 0.272908 0.045267
vt 0.347471 0.097785
vt 0.232432 0.357338
vt 0.164122 0.312977
vt 0.217748 0.221855
vt 0.285146 0.290525
vt 0.067981 0.308143
vt 0.000000 0.242303
vt 0.007194 0.130593
vt 0.128238 0.195266
vt 0.369336 0.605350
vt 0.425040 0.641082
vt 0.425040 0.747202
vt 0.364534 0.686397
vt 0.550748 0.253898
vt 0.526625 0.294720
vt 0.426470 0.222021
vt 0.494903 0.183608
vt 0.581052 0.669113
vt 0.474307 0.645410
vt 0.469234 0.546335
vt 0.556741 0.574906
vt 0.707854 0.706004
vt 0.701107 0.570010
vt 0.722461 0.824363
vt 0.581484 0.745477
vt 0.479014 0.733551
vt 0.606373 0.157346
vt 0.587256 0.119650
vt 0.808395 0.822968
vt 0.753269 0.808817
vt 0.722461 0.732597
vt 0.808395 0.730623
vt 0.362784 0.609006
vt 0.362784 0.713726
vt 0.284367 0.685051
vt 0.259493 0.644092
vt 0.359774 0.483989
vt 0.282690 0.569942
vt 0.259493 0.494916
vt 0.290462 0.456259
vt 0.359774 0.589505
vt 0.340054 0.609006
vt 0.425040 0.550861
vt 0.364458 0.605350
vt 0.359774 0.498592
vt 0.425040 0.456259
vt 0.078870 0.452679
vt 0.044397 0.375577
vt 0.008689 0.304328
vt 0.329794 0.387112
vt 0.426470 0.357102
vt 0.289260 0.433298
vt 0.173306 0.456259
vt 0.412010 0.225373
vt 0.426470 0.132734
vt 0.963691 0.007058
vt 0.927382 0.003529
vt 1.000000 0.010588
vt 0.945486 0.068400
vt 0.918800 0.110063
vt 0.445800 0.416801
vt 0.447535 0.497069
vt 0.435621 0.504656
vt 0.426470 0.421617
vt 0.873786 0.649005
vt 0.971378 0.693203
vt 0.106104 0.751724
vt 0.146464 0.671461
vt 0.169171 0.676667
vt 0.128939 0.774698
vt 0.593651 0.000000
vt 0.651517 0.034710
vt 0.111587 0.791968
vt 0.111587 0.863355
vt 0.063721 0.859264
vt 0.055843 0.825820
vt 0.681662 0.226038
vt 0.717495 0.236531
vt 0.617866 0.224413
vt 0.755494 0.216666
vt 0.779167 0.232039
vt 0.934517 0.403309
vt 0.838295 0.401685
vt 0.971378 0.388037
vt 0.866635 0.539261
vt 0.864734 0.612155
vt 0.291707 0.728203
vt 0.281143 0.813763
vt 0.259493 0.810547
vt 0.281117 0.713726
vt 0.331016 0.755656
vt 0.331016 0.862556
vt 0.052115 0.541789
vt 0.000000 0.456259
vt 0.162944 0.649161
vt 0.578232 0.380421
vt 0.663168 0.271760
vt 0.682450 0.267761
vt 0.617501 0.387902
vt 0.541543 0.388037
vt 0.615620 0.257807
vt 0.366838 0.759334
vt 0.425040 0.747202
vt 0.955424 0.205656
vt 1.000000 0.357159
vt 0.794591 0.109150
vt 0.781798 0.109714
vt 0.649084 0.388037
vt 0.702589 0.303562
vt 0.761678 0.281808
vt 0.752455 0.383085
vt 0.787366 0.459553
vt 0.726677 0.479754
vt 0.165102 0.783485
vt 0.199208 0.791968
vt 0.867888 0.776069
vt 0.871082 0.824508
vt 0.891073 0.000000
vt 0.805206 0.077074
vt 0.779167 0.076153
vt 0.803917 0.027317
vt 0.146796 0.791968
vt 0.146796 0.886738
vt 0.685504 0.482547
vt 0.722461 0.388037
vt 0.359774 0.456259
vt 0.359774 0.456259
vt 0.359774 0.456259
vt 0.359774 0.456259
vn 0.1897 -0.8416 -0.5056
vn -0.0991 0.9924 -0.0731
vn -0.0233 0.0275 -0.9994
vn 0.5217 -0.1179 0.8450
vn 1.0000 0.0025 -0.0038
vn -0.9125 0.2833 0.2952
vn -0.8979 0.0882 -0.4312
vn -0.8095 -0.2748 -0.5189
vn -0.9178 -0.3482 0.1906
vn 0.9324 -0.1280 0.3381
vn 0.6158 -0.2688 0.7406
vn 0.9901 -0.1402 -0.0069
vn -0.5532 -0.5372 0.6367
vn -0.5193 -0.5800 0.6277
vn -0.3259 -0.1415 0.9348
vn 0.1462 0.1887 -0.9711
vn 0.5219 0.0540 -0.8513
vn -0.1602 0.1133 -0.9806
vn 0.1071 0.9925 0.0587
vn 0.0000 1.0000 0.0000
vn 0.3003 0.9537 0.0157
vn -0.5600 -0.6830 0.4690
vn -0.1279 -0.5136 0.8485
vn -0.0613 -0.9761 -0.2084
vn -0.2516 -0.7634 -0.5949
vn -0.1965 -0.9044 -0.3787
vn -0.3627 -0.7601 -0.5391
vn -0.2019 -0.8375 0.5078
vn -0.1402 -0.9749 0.1728
vn 0.1785 -0.7074 0.6839
vn -0.2967 -0.9114 0.2852
vn 0.2055 -0.9214 0.3299
vn 0.2964 -0.6558 0.6943
vn -0.1012 0.9894 0.1046
vn 0.1293 0.9773 -0.1680
vn -0.1461 0.9887 0.0320
vn -0.0517 0.9985 -0.0205
vn 0.0794 0.9935 0.0818
vn -0.0871 0.9906 0.1052
vn -0.1157 0.9929 0.0285
vn -0.3087 0.0811 -0.9477
vn -0.3051 0.0153 -0.9522
vn -0.1566 0.1051 -0.9820
vn 0.0419 0.0709 -0.9966
vn -0.0007 -0.5166 -0.8562
vn 0.7623 -0.2531 -0.5957
vn 0.3569 -0.3073 -0.8822
vn 0.1352 0.0094 -0.9908
vn 0.5810 -0.0857 -0.8094
vn 0.8390 -0.2229 0.4965
vn -0.0914 -0.4369 0.8949
vn 0.2158 0.3594 0.9079
vn -0.1911 -0.3999 0.8964
vn 0.1347 0.0346 0.9903
vn -0.1725 -0.7369 0.6537
vn -0.2126 -0.5298 0.8211
vn -0.1245 0.0935 0.9878
vn -0.5558 0.2222 0.8011
vn 0.8281 -0.2829 -0.4839
vn 0.9843 0.0076 -0.1766
vn 0.9942 -0.0971 0.0471
vn 0.9925 0.0795 -0.0932
vn 0.9929 -0.0538 -0.1060
vn 0.7941 -0.1442 0.5905
vn 0.9091 0.0062 0.4164
vn 0.9621 -0.2195 0.1618
vn 0.8295 0.0095 0.5584
vn -0.4593 -0.2008 0.8653
vn -0.5215 -0.0199 0.8530
vn -0.9946 -0.1008 0.0231
vn -0.8556 -0.2668 -0.4436
vn -0.9229 -0.2217 -0.3150
vn -0.8492 -0.0327 -0.5271
vn -0.9458 0.1145 -0.3038
vn -0.9259 0.1191 -0.3584
vn -0.9230 0.0422 -0.3824
vn -0.7239 0.0860 0.6845
vn -0.6487 -0.1469 0.7468
vn -0.7483 -0.4129 0.5191
vn 0.8364 -0.0693 -0.5438
vn 0.9077 -0.0395 -0.4177
vn 0.9967 0.0816 -0.0017
vn 0.7505 -0.1922 0.6323
vn 0.8489 -0.2737 0.4521
vn 0.0495 0.1341 0.9897
vn -0.2214 0.2588 -0.9402
vn -0.3597 0.0886 -0.9289
vn -0.0877 0.0962 -0.9915
vn 0.0747 0.9930 -0.0913
vn 0.1827 0.9701 0.1595
vn -0.0927 -0.7858 -0.6115
vn 0.4215 -0.6916 -0.5865
vn 0.4776 -0.8618 -0.1708
vn 1.0000 0.0000 0.0000
usemtl earth
s off
f 98/1/1 42/2/1 4/3/1 29/4/1
f 97/5/2 33/6/2 8/7/2 46/8/2
f 96/9/3 35/10/3 5/11/3 34/12/3
f 95/13/4 37/14/4 7/15/4 32/16/4
f 94/17/5 48/18/5 8/19/5 33/20/5
f 93/21/6 50/22/6 6/23/6 31/24/6
f 92/25/7 51/26/7 13/27/7 43/28/7
f 91/29/8 52/30/8 21/31/8 53/32/8
f 90/33/9 38/34/9 20/35/9 54/36/9
f 89/37/10 55/38/10 15/39/10 45/40/10
f 88/41/11 56/42/11 22/43/11 57/44/11
f 87/45/12 36/46/12 18/47/12 58/48/12
f 86/49/13 59/50/13 14/51/13 44/52/13
f 85/53/14 60/54/14 23/55/14 61/56/14
f 84/57/15 49/58/15 19/59/15 62/60/15
f 83/61/16 63/62/16 16/63/16 46/64/16
f 82/65/17 64/66/17 24/67/17 65/68/17
f 81/69/18 47/70/18 17/71/18 66/72/18
f 80/73/19 67/74/19 16/75/19 34/76/19
f 79/77/20 68/78/20 25/79/20 69/80/20
f 78/81/21 45/82/21 15/83/21 70/84/21
f 77/85/22 71/86/22 11/87/22 41/88/22
f 76/89/23 72/90/23 26/91/23 73/92/23
f 75/93/24 30/94/24 12/95/24 74/96/24
f 72/97/25 75/93/25 74/96/25 26/98/25
f 9/99/26 39/100/26 75/93/26 72/97/26
f 39/100/27 3/101/27 30/94/27 75/93/27
f 40/102/28 76/89/28 73/92/28 10/103/28
f 1/104/29 27/105/29 76/106/29 40/107/29
f 27/108/30 9/109/30 72/110/30 76/111/30
f 28/112/31 77/113/31 41/114/31 2/115/31
f 10/116/32 73/117/32 77/113/32 28/112/32
f 73/118/33 26/119/33 71/120/33 77/121/33
f 68/78/20 78/81/20 70/84/20 25/79/20
f 14/122/34 32/123/34 78/81/34 68/78/34
f 32/123/35 7/124/35 45/82/35 78/81/35
f 31/125/36 79/77/36 69/80/36 13/126/36
f 6/127/37 44/128/37 79/77/37 31/125/37
f 44/128/38 14/122/38 68/78/38 79/77/38
f 43/129/39 80/73/39 34/76/39 5/130/39
f 13/126/40 69/80/40 80/73/40 43/129/40
f 69/80/20 25/79/20 67/74/20 80/73/20
f 64/131/41 81/69/41 66/72/41 24/132/41
f 12/133/42 30/134/42 81/69/42 64/131/42
f 30/134/43 3/135/43 47/70/43 81/69/43
f 36/136/44 82/137/44 65/138/44 18/139/44
f 4/3/45 42/2/45 82/137/45 36/136/45
f 42/140/46 12/141/46 64/66/46 82/65/46
f 48/18/47 83/61/47 46/64/47 8/19/47
f 18/47/48 65/68/48 83/61/48 48/18/48
f 65/68/49 24/67/49 63/62/49 83/61/49
f 60/142/50 84/143/50 62/144/50 23/145/50
f 10/103/51 28/146/51 84/147/51 60/54/51
f 28/148/52 2/149/52 49/150/52 84/151/52
f 38/152/53 85/53/53 61/56/53 20/153/53
f 1/154/54 40/102/54 85/53/54 38/152/54
f 40/102/55 10/103/55 60/54/55 85/53/55
f 50/155/56 86/49/56 44/52/56 6/156/56
f 20/153/57 61/56/57 86/49/57 50/155/57
f 61/56/58 23/55/58 59/50/58 86/49/58
f 56/157/59 87/45/59 58/48/59 22/158/59
f 11/159/60 29/160/60 87/45/60 56/157/60
f 29/160/61 4/161/61 36/46/61 87/45/61
f 49/162/62 88/163/62 57/164/62 19/165/62
f 2/166/63 41/167/63 88/163/63 49/162/63
f 41/168/64 11/169/64 56/42/64 88/41/64
f 37/14/65 89/37/65 45/40/65 7/15/65
f 19/170/66 57/44/66 89/37/66 37/14/66
f 57/44/67 22/43/67 55/38/67 89/37/67
f 52/171/68 90/172/68 54/173/68 21/174/68
f 9/175/69 27/176/69 90/172/69 52/171/69
f 27/177/70 1/178/70 38/34/70 90/33/70
f 47/70/71 91/29/71 53/32/71 17/71/71
f 3/135/72 39/179/72 91/29/72 47/70/72
f 39/179/73 9/180/73 52/30/73 91/29/73
f 35/181/74 92/25/74 43/28/74 5/182/74
f 17/71/75 53/32/75 92/25/75 35/181/75
f 53/32/76 21/31/76 51/26/76 92/25/76
f 51/183/77 93/184/77 31/185/77 13/186/77
f 21/174/78 54/173/78 93/184/78 51/183/78
f 54/173/79 20/153/79 50/155/79 93/184/79
f 55/187/80 94/17/80 33/20/80 15/188/80
f 22/158/81 58/48/81 94/17/81 55/187/81
f 58/48/82 18/47/82 48/18/82 94/17/82
f 59/189/83 95/13/83 32/16/83 14/190/83
f 23/145/84 62/144/84 95/13/84 59/189/84
f 62/60/85 19/59/85 37/191/85 95/192/85
f 63/193/86 96/194/86 34/195/86 16/196/86
f 24/132/87 66/72/87 96/194/87 63/193/87
f 66/197/88 17/198/88 35/10/88 96/9/88
f 67/74/89 97/5/89 46/8/89 16/75/89
f 25/79/20 70/84/20 97/5/20 67/74/20
f 70/84/90 15/83/90 33/6/90 97/5/90
f 71/199/91 98/1/91 29/4/91 11/200/91
f 26/98/92 74/96/92 98/1/92 71/199/92
f 74/96/93 12/95/93 42/2/93 98/1/93
f 12/201/94 64/202/94 24/203/94 63/204/94
