# Blender v3.3.1 OBJ File: 'Platforms.blend'
# www.blender.org
mtllib Solar platform blades.mtl
o solar_platform_blades_Cube.003
v -1.830873 5.024230 -2.293177
v -1.830873 5.072445 -2.306096
v -1.830873 4.988935 -2.257881
v -1.830873 4.976016 -2.209666
v -1.830873 4.988935 -2.161452
v -1.830873 5.024230 -2.126156
v -1.830873 5.072445 -2.113237
v -1.830873 5.120660 -2.126156
v -1.830873 5.155956 -2.161452
v -1.830873 5.168875 -2.209666
v -1.830873 5.155956 -2.257881
v -1.830873 5.120660 -2.293177
v -1.784478 5.024230 -2.293177
v -1.784478 5.072445 -2.306096
v -1.784478 4.988935 -2.257881
v -1.784478 4.976016 -2.209666
v -1.784478 4.988935 -2.161452
v -1.784478 5.024230 -2.126156
v -1.784478 5.072445 -2.113237
v -1.784478 5.120660 -2.126156
v -1.784478 5.155956 -2.161452
v -1.784478 5.168875 -2.209666
v -1.784478 5.155956 -2.257881
v -1.784478 5.120660 -2.293177
v -1.952355 4.702977 -4.815378
v -1.827257 5.082270 -4.898412
v -1.840088 2.749993 -0.866553
v -1.884223 2.677212 -1.265503
v -1.739321 3.002662 -0.562567
v -1.810444 7.403720 -0.861381
v -1.896716 7.111631 -0.589998
v -1.786116 7.530336 -1.248397
v -1.696853 5.447133 -4.770842
v -1.915845 4.690547 -4.817150
v -1.790747 5.069840 -4.900184
v -1.803579 2.737564 -0.868325
v -1.847713 2.664782 -1.267274
v -1.702812 2.990232 -0.564339
v -1.773935 7.391291 -0.863153
v -1.860207 7.099201 -0.591770
v -1.749607 7.517907 -1.250169
v -1.660344 5.434704 -4.772613
vt 0.834148 0.554395
vt 0.835006 0.551270
vt 0.834192 0.548123
vt 0.831924 0.545796
vt 0.828811 0.544914
vt 0.825686 0.545712
vt 0.823386 0.547977
vt 0.822528 0.551102
vt 0.823343 0.554249
vt 0.825610 0.556576
vt 0.828724 0.557458
vt 0.831849 0.556660
vt 0.553023 0.546493
vt 0.550724 0.544228
vt 0.547599 0.543430
vt 0.544485 0.544312
vt 0.542218 0.546639
vt 0.541404 0.549786
vt 0.542261 0.552911
vt 0.544561 0.555176
vt 0.547686 0.555974
vt 0.550799 0.555091
vt 0.553067 0.552765
vt 0.553881 0.549617
vt 0.653455 0.414284
vt 0.633818 0.397077
vt 0.355169 0.772338
vt 0.355818 0.919557
vt 0.358218 0.919118
vt 0.358190 0.772370
vt 0.374081 0.552445
vt 0.382497 0.577436
vt 0.916568 0.401136
vt 0.891871 0.392264
vt 0.358218 0.766241
vt 0.355197 0.766209
vt 0.355159 0.769458
vt 0.358180 0.769490
vt 0.888513 0.708952
vt 0.914110 0.704141
vt 0.370151 0.934838
vt 0.373158 0.934909
vt 0.373131 0.931820
vt 0.370124 0.931749
vt 0.188534 0.837308
vt 0.188534 0.840233
vt 0.191005 0.840764
vt 0.191005 0.837838
vt 0.372943 0.929650
vt 0.369936 0.929579
vt 0.933747 0.421315
vt 0.191928 0.840424
vt 0.194949 0.840453
vt 0.194949 0.837337
vt 0.191928 0.837308
vt 0.212689 0.837712
vt 0.210283 0.837308
vt 0.210282 0.859437
vt 0.212689 0.859841
vt 0.138163 0.837307
vt 0.135653 0.837331
vt 0.135215 0.861677
vt 0.137725 0.861653
vt 0.242575 0.862982
vt 0.245087 0.863046
vt 0.245439 0.837371
vt 0.242927 0.837307
vt 0.139087 0.863538
vt 0.141593 0.863571
vt 0.141593 0.837340
vt 0.139087 0.837307
vt 0.135653 0.888086
vt 0.138163 0.888062
vt 0.242927 0.881807
vt 0.245439 0.881871
vt 0.373158 0.767006
vt 0.370775 0.766209
vt 0.379141 0.526367
vt 0.937557 0.935442
vt 0.937557 0.784717
vt 0.935133 0.784068
vt 0.934671 0.934965
vt 0.662795 0.523785
vt 0.654378 0.548775
vt 0.933747 0.686935
vt 0.636275 0.700078
vt 0.653455 0.679900
vt 0.362170 0.766604
vt 0.362561 0.922530
vt 0.365069 0.922436
vt 0.365069 0.766209
vt 0.659437 0.574853
vt 0.608222 0.392264
vt 0.611579 0.708949
vt 0.930354 0.271853
vt 0.930809 0.381373
vt 0.933307 0.381645
vt 0.933307 0.271283
vt 0.369013 0.931344
vt 0.369013 0.766209
vt 0.366616 0.766942
vt 0.365992 0.931301
vn -1.0000 0.0000 0.0000
vn 1.0000 0.0000 0.0000
vn 0.9593 -0.2823 -0.0072
vn -0.0761 -0.3760 -0.9235
vn 0.9804 -0.0991 0.1700
vn -0.9745 0.1117 0.1946
vn 0.0000 -0.7071 -0.7071
vn -0.9530 0.3028 -0.0058
vn 0.0000 -0.2588 0.9659
vn 0.0000 -0.9659 -0.2588
vn 0.0000 0.9659 -0.2588
vn 0.0000 0.2588 0.9659
vn -0.9946 0.0568 0.0873
vn 0.0000 0.7071 -0.7071
vn -0.1082 -0.1784 -0.9780
vn 0.2470 0.6194 0.7452
vn -0.2115 -0.7160 0.6653
vn 0.0597 0.3104 -0.9487
vn 0.3197 0.8944 0.3127
vn -0.3067 -0.9298 0.2035
vn -0.0749 -0.6118 0.7875
vn 0.9984 -0.0323 0.0455
vn 0.1082 0.6097 0.7852
vn -0.9806 0.1015 -0.1675
vn -0.9594 0.2819 0.0049
vn 0.9944 -0.0604 -0.0866
vn 0.1497 0.9796 0.1344
vn -0.9984 0.0359 -0.0443
vn 0.9533 -0.3022 0.0036
vn 0.9746 -0.1141 -0.1926
vn -0.1441 -0.9804 0.1345
vn 0.0367 0.3768 -0.9256
usemtl white
s off
f 1/1/1 3/2/1 4/3/1 5/4/1 6/5/1 7/6/1 8/7/1 9/8/1 10/9/1 11/10/1 12/11/1 2/12/1
f 13/13/2 14/14/2 24/15/2 23/16/2 22/17/2 21/18/2 20/19/2 19/20/2 18/21/2 17/22/2 16/23/2 15/24/2
f 13/13/3 34/25/3 35/26/3 14/14/3
f 16/27/4 37/28/4 28/29/4 4/30/4
f 21/18/5 39/31/5 40/32/5 20/19/5
f 5/4/6 27/33/6 29/34/6 6/5/6
f 1/35/7 13/36/7 15/37/7 3/38/7
f 12/11/8 33/39/8 26/40/8 2/12/8
f 6/41/9 18/42/9 19/43/9 7/44/9
f 3/38/10 15/37/10 16/27/10 4/30/10
f 10/45/11 22/46/11 23/47/11 11/48/11
f 7/44/12 19/43/12 20/49/12 8/50/12
f 4/3/13 28/51/13 27/33/13 5/4/13
f 11/52/14 23/53/14 24/54/14 12/55/14
f 26/56/15 35/57/15 34/58/15 25/59/15
f 31/60/16 40/61/16 39/62/16 30/63/16
f 27/64/17 36/65/17 38/66/17 29/67/17
f 33/68/18 42/69/18 35/70/18 26/71/18
f 30/63/19 39/62/19 41/72/19 32/73/19
f 28/74/20 37/75/20 36/65/20 27/64/20
f 20/49/21 40/76/21 31/77/21 8/50/21
f 22/17/22 41/78/22 39/31/22 21/18/22
f 6/79/23 29/80/23 38/81/23 18/82/23
f 8/7/24 31/83/24 30/84/24 9/8/24
f 2/12/25 26/40/25 25/85/25 1/1/25
f 17/22/26 36/86/26 37/87/26 16/23/26
f 24/88/27 42/89/27 33/90/27 12/91/27
f 9/8/28 30/84/28 32/92/28 10/9/28
f 14/14/29 35/26/29 42/93/29 24/15/29
f 18/21/30 38/94/30 36/86/30 17/22/30
f 1/95/31 25/96/31 34/97/31 13/98/31
f 10/99/32 32/100/32 41/101/32 22/102/32
