# Blender v3.3.1 OBJ File: 'Platforms.blend'
# www.blender.org
mtllib wall_chunk_platform.mtl
o Plane_Plane.002
v -1.000000 0.000000 1.000000
v 1.000000 0.000000 1.000000
v -1.000000 0.000000 -1.000000
v 1.000000 0.000000 -1.000000
v -1.000000 0.154032 -1.000000
v -1.000000 0.154032 1.000000
v 1.000000 0.154032 1.000000
v 1.000000 0.154032 -1.000000
v -1.000000 0.000000 -0.777778
v -1.000000 0.000000 -0.555556
v -1.000000 0.000000 -0.333333
v -1.000000 0.000000 -0.111111
v -1.000000 0.000000 0.111111
v -1.000000 0.000000 0.333333
v -1.000000 0.000000 0.555556
v -1.000000 0.000000 0.777778
v 1.000000 0.000000 0.777778
v 1.000000 0.000000 0.555556
v 1.000000 0.000000 0.333333
v 1.000000 0.000000 0.111111
v 1.000000 0.000000 -0.111111
v 1.000000 0.000000 -0.333333
v 1.000000 0.000000 -0.555556
v 1.000000 0.000000 -0.777778
v -1.000000 0.154032 -0.777778
v -1.000000 0.154032 -0.555556
v -1.000000 0.154032 -0.333333
v -1.000000 0.154032 -0.111111
v -1.000000 0.154032 0.111111
v -1.000000 0.154032 0.333333
v -1.000000 0.154032 0.555556
v -1.000000 0.154032 0.777778
v 1.000000 0.154032 0.777778
v 1.000000 0.154032 0.555556
v 1.000000 0.154032 0.333333
v 1.000000 0.154032 0.111111
v 1.000000 0.154032 -0.111111
v 1.000000 0.154032 -0.333333
v 1.000000 0.154032 -0.555556
v 1.000000 0.154032 -0.777778
v 1.249487 0.000000 0.777778
v 1.249487 0.000000 0.555556
v 1.249487 0.000000 0.333333
v 1.249487 0.000000 0.111111
v 1.452505 0.000000 -0.111111
v 1.452505 0.000000 -0.333333
v 1.249487 0.000000 -0.555556
v 1.249487 0.000000 -0.777778
v 1.249487 0.154032 0.777778
v 1.249487 0.154032 0.555556
v 1.249487 0.154032 0.333333
v 1.249487 0.154032 0.111111
v 1.452505 0.154032 -0.111111
v 1.452505 0.154032 -0.333333
v 1.249487 0.154032 -0.555556
v 1.249487 0.154032 -0.777778
v -1.231502 0.154032 -1.000000
v -1.231502 0.000000 -1.000000
v -1.231502 0.000000 -0.777778
v -1.231502 0.000000 -0.555556
v -1.231502 0.000000 -0.333333
v -1.470875 0.000000 -0.111111
v -1.470875 0.000000 0.111111
v -1.231502 0.000000 0.333333
v -1.231502 0.000000 0.555556
v -1.231502 0.154032 -0.777778
v -1.231502 0.154032 -0.555556
v -1.231502 0.154032 -0.333333
v -1.470875 0.154032 -0.111111
v -1.470875 0.154032 0.111111
v -1.231502 0.154032 0.333333
v -1.231502 0.154032 0.555556
v -0.461595 0.000000 1.000000
v 0.038405 0.000000 1.000000
v 0.538405 0.000000 1.000000
v 0.538405 0.000000 -1.000000
v 0.038405 0.000000 -1.000000
v -0.461595 0.000000 -1.000000
v -0.461595 0.154032 1.000000
v 0.038405 0.154032 1.000000
v 0.538405 0.154032 1.000000
v 0.538405 0.154032 -1.000000
v 0.038405 0.154032 -1.000000
v -0.461595 0.154032 -1.000000
v 0.538405 0.154032 0.777778
v 0.038405 0.154032 0.777778
v -0.461595 0.154032 0.777778
v 0.538405 0.154032 0.555556
v 0.038405 0.154032 0.555556
v -0.461595 0.154032 0.555556
v 0.538405 0.154032 0.333333
v 0.038405 0.154032 0.333333
v -0.461595 0.154032 0.333333
v 0.538405 0.154032 0.111111
v 0.038405 0.154032 0.111111
v -0.461595 0.154032 0.111111
v 0.538405 0.154032 -0.111111
v 0.038405 0.154032 -0.111111
v -0.461595 0.154032 -0.111111
v 0.538405 0.154032 -0.333333
v 0.038405 0.154032 -0.333333
v -0.461595 0.154032 -0.333333
v 0.538405 0.154032 -0.555556
v 0.038405 0.154032 -0.555556
v -0.461595 0.154032 -0.555556
v 0.538405 0.154032 -0.777778
v 0.038405 0.154032 -0.777778
v -0.461595 0.154032 -0.777778
v -0.461595 0.000000 0.777778
v 0.038405 0.000000 0.777778
v 0.538405 0.000000 0.777778
v -0.461595 0.000000 0.555556
v 0.038405 0.000000 0.555556
v 0.538405 0.000000 0.555556
v -0.461595 0.000000 0.333333
v 0.038405 0.000000 0.333333
v 0.538405 0.000000 0.333333
v -0.461595 0.000000 0.111111
v 0.038405 0.000000 0.111111
v 0.538405 0.000000 0.111111
v -0.461595 0.000000 -0.111111
v 0.038405 0.000000 -0.111111
v 0.538405 0.000000 -0.111111
v -0.461595 0.000000 -0.333333
v 0.038405 0.000000 -0.333333
v 0.538405 0.000000 -0.333333
v -0.461595 0.000000 -0.555556
v 0.038405 0.000000 -0.555556
v 0.538405 0.000000 -0.555556
v -0.461595 0.000000 -0.777778
v 0.038405 0.000000 -0.777778
v 0.538405 0.000000 -0.777778
v 0.038405 0.000000 -1.161524
v -0.461595 0.000000 -1.161524
v 0.038405 0.154032 -1.161524
v -0.461595 0.154032 -1.161524
v 0.038405 0.000000 1.183724
v 0.538405 0.000000 1.183724
v 0.038405 0.154032 1.183724
v 0.538405 0.154032 1.183724
vt 0.936092 0.404498
vt 0.983469 0.396540
vt 1.000000 0.494951
vt 0.952623 0.502909
vt 0.436092 0.218758
vt 0.452623 0.120347
vt 0.500000 0.128306
vt 0.483469 0.226716
vt 0.765880 0.719338
vt 0.765880 0.767379
vt 0.732581 0.767379
vt 0.732581 0.719338
vt 0.366291 0.671297
vt 0.366291 0.719338
vt 0.332992 0.719338
vt 0.332992 0.671297
vt 0.099897 0.623256
vt 0.099897 0.739650
vt 0.066598 0.739650
vt 0.066598 0.623256
vt 0.266393 0.623256
vt 0.266393 0.723046
vt 0.233094 0.723046
vt 0.233094 0.623256
vt 0.199795 0.725052
vt 0.166496 0.725052
vt 0.166496 0.623256
vt 0.199795 0.623256
vt 0.732581 0.671297
vt 0.732581 0.719338
vt 0.699282 0.719338
vt 0.699282 0.671297
vt 0.644114 0.116305
vt 0.596736 0.124264
vt 0.588446 0.074908
vt 0.635823 0.066950
vt 0.665983 0.721344
vt 0.665983 0.673303
vt 0.699282 0.673303
vt 0.699282 0.721344
vt 0.199795 0.623256
vt 0.233094 0.623256
vt 0.233094 0.725052
vt 0.199795 0.725052
vt 0.765880 0.623256
vt 0.765880 0.671297
vt 0.732581 0.671297
vt 0.732581 0.623256
vt 0.191491 0.514909
vt 0.238868 0.522867
vt 0.222005 0.623256
vt 0.174628 0.615298
vt 0.366291 0.623256
vt 0.332992 0.623256
vt 0.732581 0.719338
vt 0.732581 0.767379
vt 0.699282 0.767379
vt 0.699282 0.719338
vt 0.532786 0.623256
vt 0.566086 0.623256
vt 0.566086 0.677191
vt 0.532786 0.677191
vt 0.632684 0.721344
vt 0.632684 0.673303
vt 0.665983 0.673303
vt 0.665983 0.721344
vt 0.810492 0.526783
vt 0.857869 0.518825
vt 0.874074 0.615298
vt 0.826697 0.623256
vt 0.499487 0.725232
vt 0.499487 0.677191
vt 0.532786 0.677191
vt 0.532786 0.725232
vt 0.432889 0.677191
vt 0.399590 0.677191
vt 0.399590 0.623256
vt 0.432889 0.623256
vt 0.599385 0.721344
vt 0.599385 0.673303
vt 0.632684 0.673303
vt 0.632684 0.721344
vt 0.263114 0.088515
vt 0.215737 0.080556
vt 0.224672 0.027367
vt 0.272049 0.035325
vt 0.057075 0.155093
vt 0.073606 0.056682
vt 0.120983 0.064640
vt 0.104452 0.163051
vt 0.168360 0.072598
vt 0.151830 0.171009
vt 0.199207 0.178967
vt 0.246584 0.186925
vt 0.310492 0.096473
vt 0.293961 0.194884
vt 0.357869 0.104431
vt 0.341338 0.202842
vt 0.405246 0.112389
vt 0.388715 0.210800
vt 0.557075 0.468163
vt 0.604452 0.460205
vt 0.620983 0.558616
vt 0.573606 0.566574
vt 0.651829 0.452247
vt 0.668360 0.550658
vt 0.699207 0.444289
vt 0.715737 0.542700
vt 0.746584 0.436331
vt 0.763114 0.534741
vt 0.793961 0.428373
vt 0.841338 0.420414
vt 0.888715 0.412456
vt 0.905246 0.510867
vt 0.566086 0.677191
vt 0.566086 0.725232
vt 0.532786 0.725232
vt 0.532786 0.677191
vt 0.366291 0.725232
vt 0.366291 0.677191
vt 0.399590 0.677191
vt 0.399590 0.725232
vt 0.366291 0.719338
vt 0.366291 0.767379
vt 0.332992 0.767379
vt 0.332992 0.719338
vt 0.732581 0.623256
vt 0.732581 0.671297
vt 0.699282 0.671297
vt 0.699282 0.623256
vt 0.326697 0.000000
vt 0.374074 0.007958
vt 0.332992 0.721081
vt 0.299692 0.721081
vt 0.299692 0.623256
vt 0.332992 0.623256
vt 0.961558 0.556099
vt 0.914180 0.564057
vt 0.266393 0.623256
vt 0.299692 0.623256
vt 0.299692 0.721080
vt 0.266393 0.721080
vt 0.414180 0.059199
vt 0.461558 0.067157
vt 0.532786 0.677191
vt 0.499487 0.677191
vt 0.499487 0.623256
vt 0.532786 0.623256
vt 0.677295 0.603848
vt 0.629918 0.611806
vt 0.466188 0.623256
vt 0.499487 0.623256
vt 0.499487 0.677191
vt 0.466188 0.677191
vt 0.129918 0.011450
vt 0.177295 0.019408
vt 0.466188 0.677191
vt 0.432889 0.677191
vt 0.432889 0.623256
vt 0.466188 0.623256
vt 0.772049 0.587931
vt 0.724672 0.595890
vt 0.366291 0.623256
vt 0.399590 0.623256
vt 0.399590 0.677191
vt 0.366291 0.677191
vt 0.765880 0.671297
vt 0.765880 0.719338
vt 0.732581 0.719338
vt 0.732581 0.671297
vt 0.399590 0.725232
vt 0.399590 0.677191
vt 0.432889 0.677191
vt 0.432889 0.725232
vt 0.466188 0.725232
vt 0.466188 0.677191
vt 0.499487 0.677191
vt 0.499487 0.725232
vt 0.432889 0.725232
vt 0.432889 0.677191
vt 0.466188 0.677191
vt 0.466188 0.725232
vt 0.099897 0.789698
vt 0.066598 0.789698
vt 0.096736 0.498992
vt 0.144114 0.506951
vt 0.135823 0.556306
vt 0.088446 0.548348
vt 0.566085 0.673303
vt 0.599385 0.673303
vt 0.599385 0.723350
vt 0.566085 0.723350
vt 0.928376 0.068556
vt 0.880999 0.076515
vt 0.872709 0.027159
vt 0.920086 0.019201
vt 0.699282 0.673303
vt 0.665983 0.673303
vt 0.665983 0.623256
vt 0.699282 0.623256
vt 0.380999 0.546742
vt 0.428376 0.554700
vt 0.420086 0.604055
vt 0.372709 0.596097
vt 0.833622 0.084473
vt 0.786245 0.092431
vt 0.777954 0.043075
vt 0.825332 0.035117
vt 0.665983 0.673303
vt 0.632684 0.673303
vt 0.632684 0.623256
vt 0.665983 0.623256
vt 0.286245 0.530825
vt 0.333622 0.538783
vt 0.325332 0.588139
vt 0.277954 0.580181
vt 0.599385 0.623256
vt 0.632684 0.623256
vt 0.632684 0.673303
vt 0.599385 0.673303
vt 0.738868 0.100389
vt 0.691491 0.108347
vt 0.674628 0.007958
vt 0.722005 0.000000
vt 0.599385 0.673303
vt 0.566086 0.673303
vt 0.566086 0.623256
vt 0.599385 0.623256
vt 0.900280 0.191301
vt 0.852903 0.199259
vt 0.918186 0.297899
vt 0.870809 0.305858
vt 0.805526 0.207217
vt 0.823432 0.313816
vt 0.758149 0.215175
vt 0.776055 0.321774
vt 0.710772 0.223134
vt 0.728678 0.329732
vt 0.663395 0.231092
vt 0.681301 0.337690
vt 0.616018 0.239050
vt 0.633924 0.345649
vt 0.549359 0.132222
vt 0.568641 0.247008
vt 0.586547 0.353607
vt 0.501982 0.140180
vt 0.521263 0.254966
vt 0.539169 0.361565
vt 0.352903 0.423997
vt 0.400280 0.431955
vt 0.370809 0.317398
vt 0.418186 0.325357
vt 0.305526 0.416039
vt 0.323432 0.309440
vt 0.258149 0.408081
vt 0.276055 0.301482
vt 0.210772 0.400123
vt 0.228678 0.293524
vt 0.163395 0.392164
vt 0.181301 0.285566
vt 0.116018 0.384206
vt 0.133924 0.277608
vt 0.049359 0.491034
vt 0.068641 0.376248
vt 0.086547 0.269649
vt 0.001982 0.483076
vt 0.021263 0.368290
vt 0.039169 0.261691
vt 0.033299 0.623256
vt 0.033299 0.739650
vt 0.000000 0.739650
vt 0.000000 0.623256
vt 0.033299 0.847742
vt 0.000000 0.847742
vt 0.266393 0.721080
vt 0.299692 0.721080
vt 0.299692 0.760799
vt 0.266393 0.760799
vt 0.066598 0.623256
vt 0.066598 0.723046
vt 0.033299 0.723046
vt 0.033299 0.623256
vt 0.066598 0.831138
vt 0.033299 0.831138
vt 0.965564 0.289941
vt 0.947658 0.183343
vt 0.982094 0.177558
vt 1.000000 0.284157
vt 0.447658 0.439913
vt 0.465564 0.333315
vt 0.133197 0.623256
vt 0.133197 0.731348
vt 0.099897 0.731348
vt 0.099897 0.623256
vt 0.632684 0.756263
vt 0.599385 0.756263
vt 0.599385 0.721344
vt 0.632684 0.721344
vt 0.632684 0.721344
vt 0.665983 0.721344
vt 0.665983 0.756263
vt 0.632684 0.756263
vt 0.500000 0.339099
vt 0.482094 0.445698
vt 0.166496 0.623256
vt 0.166496 0.731348
vt 0.133197 0.731348
vt 0.133197 0.623256
vt 0.000000 0.255112
vt 0.017906 0.148513
vt 0.517906 0.474743
vt 0.500000 0.368144
vt 0.332992 0.760799
vt 0.299692 0.760799
vt 0.299692 0.721080
vt 0.332992 0.721080
vn 0.0000 -1.0000 0.0000
vn 0.0000 1.0000 0.0000
vn 1.0000 0.0000 0.0000
vn -1.0000 0.0000 0.0000
vn 0.0000 0.0000 -1.0000
vn 0.0000 0.0000 1.0000
usemtl bricks
s off
f 132/1/1 76/2/1 4/3/1 24/4/1
f 106/5/2 40/6/2 8/7/2 82/8/2
f 24/9/3 4/10/3 8/11/3 40/12/3
f 16/13/4 1/14/4 6/15/4 32/16/4
f 78/17/5 3/18/5 5/19/5 84/20/5
f 75/21/6 2/22/6 7/23/6 81/24/6
f 13/25/6 29/26/6 70/27/6 63/28/6
f 9/29/4 10/30/4 26/31/4 25/32/4
f 14/33/1 15/34/1 65/35/1 64/36/1
f 11/37/4 12/38/4 28/39/4 27/40/4
f 28/41/5 12/42/5 62/43/5 69/44/5
f 13/45/4 14/46/4 30/47/4 29/48/4
f 29/49/2 28/50/2 69/51/2 70/52/2
f 15/53/4 16/13/4 32/16/4 31/54/4
f 2/55/3 17/56/3 33/57/3 7/58/3
f 20/59/5 36/60/5 52/61/5 44/62/5
f 18/63/3 19/64/3 35/65/3 34/66/3
f 21/67/1 22/68/1 46/69/1 45/70/1
f 20/71/3 21/72/3 37/73/3 36/74/3
f 35/75/6 19/76/6 43/77/6 51/78/6
f 22/79/3 23/80/3 39/81/3 38/82/3
f 36/83/2 35/84/2 51/85/2 52/86/2
f 81/87/2 7/88/2 33/89/2 85/90/2
f 85/90/2 33/89/2 34/91/2 88/92/2
f 88/92/2 34/91/2 35/84/2 91/93/2
f 91/93/2 35/84/2 36/83/2 94/94/2
f 94/94/2 36/83/2 37/95/2 97/96/2
f 97/96/2 37/95/2 38/97/2 100/98/2
f 100/98/2 38/97/2 39/99/2 103/100/2
f 103/100/2 39/99/2 40/6/2 106/5/2
f 75/101/1 111/102/1 17/103/1 2/104/1
f 111/102/1 114/105/1 18/106/1 17/103/1
f 114/105/1 117/107/1 19/108/1 18/106/1
f 117/107/1 120/109/1 20/110/1 19/108/1
f 120/109/1 123/111/1 21/67/1 20/110/1
f 123/111/1 126/112/1 22/68/1 21/67/1
f 126/112/1 129/113/1 23/114/1 22/68/1
f 129/113/1 132/1/1 24/4/1 23/114/1
f 41/115/3 42/116/3 50/117/3 49/118/3
f 43/119/3 44/120/3 52/121/3 51/122/3
f 45/123/3 46/124/3 54/125/3 53/126/3
f 47/127/3 48/128/3 56/129/3 55/130/3
f 38/97/2 37/95/2 53/131/2 54/132/2
f 37/133/6 21/134/6 45/135/6 53/136/6
f 23/114/1 24/4/1 48/137/1 47/138/1
f 22/139/5 38/140/5 54/141/5 46/142/5
f 40/6/2 39/99/2 55/143/2 56/144/2
f 39/145/6 23/146/6 47/147/6 55/148/6
f 17/103/1 18/106/1 42/149/1 41/150/1
f 24/151/5 40/152/5 56/153/5 48/154/5
f 34/91/2 33/89/2 49/155/2 50/156/2
f 33/157/6 17/158/6 41/159/6 49/160/6
f 19/108/1 20/110/1 44/161/1 43/162/1
f 18/163/5 34/164/5 50/165/5 42/166/5
f 58/167/4 59/168/4 66/169/4 57/170/4
f 60/171/4 61/172/4 68/173/4 67/174/4
f 62/175/4 63/176/4 70/177/4 69/178/4
f 64/179/4 65/180/4 72/181/4 71/182/4
f 5/19/5 3/18/5 58/183/5 57/184/5
f 31/185/2 30/186/2 71/187/2 72/188/2
f 30/189/5 14/190/5 64/191/5 71/192/5
f 3/193/1 9/194/1 59/195/1 58/196/1
f 15/197/6 31/198/6 72/199/6 65/200/6
f 25/201/2 5/202/2 57/203/2 66/204/2
f 10/205/1 11/206/1 61/207/1 60/208/1
f 9/209/6 25/210/6 66/211/6 59/212/6
f 27/213/2 26/214/2 67/215/2 68/216/2
f 26/217/5 10/218/5 60/219/5 67/220/5
f 12/221/1 13/222/1 63/223/1 62/224/1
f 11/225/6 27/226/6 68/227/6 61/228/6
f 10/205/1 9/194/1 130/229/1 127/230/1
f 127/230/1 130/229/1 131/231/1 128/232/1
f 128/232/1 131/231/1 132/1/1 129/113/1
f 11/206/1 10/205/1 127/230/1 124/233/1
f 124/233/1 127/230/1 128/232/1 125/234/1
f 125/234/1 128/232/1 129/113/1 126/112/1
f 12/221/1 11/206/1 124/233/1 121/235/1
f 121/235/1 124/233/1 125/234/1 122/236/1
f 122/236/1 125/234/1 126/112/1 123/111/1
f 13/222/1 12/221/1 121/235/1 118/237/1
f 118/237/1 121/235/1 122/236/1 119/238/1
f 119/238/1 122/236/1 123/111/1 120/109/1
f 14/33/1 13/222/1 118/237/1 115/239/1
f 115/239/1 118/237/1 119/238/1 116/240/1
f 116/240/1 119/238/1 120/109/1 117/107/1
f 15/34/1 14/33/1 115/239/1 112/241/1
f 112/241/1 115/239/1 116/240/1 113/242/1
f 113/242/1 116/240/1 117/107/1 114/105/1
f 16/243/1 15/34/1 112/241/1 109/244/1
f 109/244/1 112/241/1 113/242/1 110/245/1
f 110/245/1 113/242/1 114/105/1 111/102/1
f 1/246/1 16/243/1 109/244/1 73/247/1
f 73/247/1 109/244/1 110/245/1 74/248/1
f 74/248/1 110/245/1 111/102/1 75/101/1
f 26/214/2 105/249/2 108/250/2 25/201/2
f 105/249/2 104/251/2 107/252/2 108/250/2
f 104/251/2 103/100/2 106/5/2 107/252/2
f 27/213/2 102/253/2 105/249/2 26/214/2
f 102/253/2 101/254/2 104/251/2 105/249/2
f 101/254/2 100/98/2 103/100/2 104/251/2
f 28/50/2 99/255/2 102/253/2 27/213/2
f 99/255/2 98/256/2 101/254/2 102/253/2
f 98/256/2 97/96/2 100/98/2 101/254/2
f 29/49/2 96/257/2 99/255/2 28/50/2
f 96/257/2 95/258/2 98/256/2 99/255/2
f 95/258/2 94/94/2 97/96/2 98/256/2
f 30/186/2 93/259/2 96/257/2 29/49/2
f 93/259/2 92/260/2 95/258/2 96/257/2
f 92/260/2 91/93/2 94/94/2 95/258/2
f 31/185/2 90/261/2 93/259/2 30/186/2
f 90/261/2 89/262/2 92/260/2 93/259/2
f 89/262/2 88/92/2 91/93/2 92/260/2
f 32/263/2 87/264/2 90/261/2 31/185/2
f 87/264/2 86/265/2 89/262/2 90/261/2
f 86/265/2 85/90/2 88/92/2 89/262/2
f 6/266/2 79/267/2 87/264/2 32/263/2
f 79/267/2 80/268/2 86/265/2 87/264/2
f 80/268/2 81/87/2 85/90/2 86/265/2
f 1/269/6 73/270/6 79/271/6 6/272/6
f 73/270/6 74/273/6 80/274/6 79/271/6
f 80/275/4 74/276/4 137/277/4 139/278/4
f 4/279/5 76/280/5 82/281/5 8/282/5
f 76/280/5 77/283/5 83/284/5 82/281/5
f 77/285/1 78/286/1 134/287/1 133/288/1
f 25/201/2 108/250/2 84/289/2 5/202/2
f 108/250/2 107/252/2 83/290/2 84/289/2
f 107/252/2 106/5/2 82/8/2 83/290/2
f 9/194/1 3/193/1 78/286/1 130/229/1
f 130/229/1 78/286/1 77/285/1 131/231/1
f 131/231/1 77/285/1 76/2/1 132/1/1
f 133/291/5 134/292/5 136/293/5 135/294/5
f 78/295/4 84/296/4 136/297/4 134/298/4
f 83/299/3 77/300/3 133/301/3 135/302/3
f 84/289/2 83/290/2 135/303/2 136/304/2
f 137/305/6 138/306/6 140/307/6 139/308/6
f 81/87/2 80/268/2 139/309/2 140/310/2
f 74/248/1 75/101/1 138/311/1 137/312/1
f 75/313/3 81/314/3 140/315/3 138/316/3
